<?xml version="1.0" encoding="utf-8"?>
<!-- Generator: Adobe Illustrator 17.0.0, SVG Export Plug-In . SVG Version: 6.00 Build 0)  -->
<!DOCTYPE svg PUBLIC "-//W3C//DTD SVG 1.1//EN" "http://www.w3.org/Graphics/SVG/1.1/DTD/svg11.dtd">
<svg version="1.1" id="Layer_1" xmlns="http://www.w3.org/2000/svg" xmlns:xlink="http://www.w3.org/1999/xlink" x="0px" y="0px"
	 width="579.933px" height="579.933px" viewBox="8.255 131.095 579.933 579.933"
	 enable-background="new 8.255 131.095 579.933 579.933" xml:space="preserve">
<g>
	<g>
		<g>
			<g>
				<path fill="#FFFFFF" d="M368.795,559.301c0-0.581,0-35.112,0-69.643s0-69.062,0-69.643c-0.698-19.881-8.022-38.368-20.23-51.854
					c-12.208-13.487-29.183-21.974-49.297-21.974c-20.579,0-39.298,8.371-52.785,21.858c-13.487,13.487-21.858,32.206-21.858,52.785
					s8.371,39.298,21.858,52.785c13.487,13.487,32.206,21.858,52.785,21.858c9.65,0,18.835-1.86,27.206-5.116
					c8.487-3.372,16.161-8.139,22.788-14.184c0,13.487,0,26.974,0,40.46c0,13.487,0,26.974,0,40.46
					c-7.79,2.907-15.928,5.116-24.3,6.627s-16.975,2.325-25.811,2.325c-40.112,0-76.387-16.277-102.663-42.553
					c-26.276-26.276-42.553-62.551-42.553-102.663s16.277-76.387,42.553-102.663s62.551-42.553,102.663-42.553
					c39.879,0,75.573,16.626,101.384,43.251c25.811,26.625,41.623,63.249,41.972,103.011c0,0.233,0,34.415,0,68.597
					s0,68.364,0,68.597"/>
			</g>
		</g>
	</g>
	<g>
		<path fill="#FFFFFF" d="M298.221,711.028c-77.433,0-150.215-30.113-205.093-84.874C38.368,571.393,8.255,498.61,8.255,421.061
			S38.368,270.73,93.129,215.969s127.543-84.874,205.093-84.874s150.215,30.113,205.093,84.874
			c54.761,54.761,84.874,127.543,84.874,205.093s-30.113,150.215-84.874,205.093C448.553,680.799,375.654,711.028,298.221,711.028z
			 M298.221,198.296c-122.777,0-222.649,99.872-222.649,222.765c0,122.776,99.872,222.649,222.649,222.649
			S520.87,543.838,520.87,421.061C520.87,298.168,420.998,198.296,298.221,198.296z"/>
	</g>
</g>
</svg>
