<svg id="logo" xmlns="http://www.w3.org/2000/svg" viewBox="-229.133 -51.712 600 135.411">

  <g id="logo__badge">
    <path fill="#BBD2DC" d="M-133.558 79.525h-43.734c-2.946 0-7.133-1.685-9.229-3.772l-30.882-30.924c-2.091-2.091-3.895-6.13-3.895-9.199v-43.595c0-2.929 1.803-7.108 3.895-9.195l30.882-30.789c1.765-1.765 5.033-3.319 7.772-3.763h-5.266c-2.917 0-7.112 1.668-9.212 3.763l-32.135 32.038c-2.1 2.091-3.772 6.274-3.772 9.195v45.284c0 2.908 1.672 7.099 3.772 9.195l32.139 32.029c2.095 2.095 6.295 3.907 9.212 3.907h45.423c3.073 0 7.125-1.812 9.224-3.907l1.913-1.905c-1.988.99-4.291 1.638-6.107 1.638z"/>
    <path fill="#D13239" d="M-172.966 73.945c-2.929 0-7.125-1.672-9.22-3.768l-28.787-28.702c-2.095-2.087-3.763-6.253-3.763-9.186v-40.529c0-2.938 1.668-7.108 3.763-9.203l28.787-28.693c2.095-2.095 6.291-3.768 9.22-3.768h40.661c2.938 0 7.125 1.672 9.22 3.768l28.787 28.693c2.1 2.095 3.776 6.27 3.776 9.203v40.53c0 2.929-1.676 7.099-3.776 9.186l-28.787 28.702c-2.095 2.095-6.282 3.768-9.22 3.768h-40.661v-.001z"/>
    <path fill="#fff" d="M-170.451 68.789c-2.244 0-5.3-1.257-6.989-2.925l-28.346-28.274c-1.541-1.537-2.798-4.597-2.798-6.833v-40.123c0-2.227 1.257-5.292 2.798-6.82l28.346-28.287c1.689-1.672 4.746-2.929 6.989-2.929h40.106c2.231 0 5.304 1.257 6.981 2.929l28.372 28.287c1.528 1.528 2.934 4.593 2.934 6.82v40.123c0 2.235-1.405 5.296-2.934 6.833l-28.372 28.274c-1.676 1.668-4.754 2.925-6.981 2.925h-40.106z"/>
    <path fill="#D13239" d="M-169.186 62.384c-1.537 0-3.509-.838-4.614-1.812l-26.556-26.475c-1.118-1.101-1.96-3.196-1.96-4.724v-37.334c0-1.541.847-3.624 1.96-4.741l26.551-26.471c1.109-.974 3.078-1.812 4.614-1.812h37.588c1.524 0 3.632.842 4.606 1.812l26.547 26.471c1.122 1.118 1.956 3.2 1.956 4.741v37.334c0 1.528-.834 3.628-1.956 4.724l-26.547 26.479c-.974.969-3.082 1.812-4.606 1.812h-37.583v-.004z"/>
    <path fill="#fff" d="M-173.101 30.342h-7.408v-5.148h-10.482v5.148h-6.841c-.986-1.113-.847-8.496-.428-11.146 1.122-10.029 11.184-26.327 17.75-28.969h7.408v40.115h.001zm-7.404-11.15v-18.796c-2.794 1.245-9.364 12.954-10.486 18.796h10.486zM-143.337-9.773v40.115h-7.408v-6.413c0-3.89-1.401-7.243-2.65-10.308-1.122-3.061-3.776-9.055-7.827-12.535v29.256h-7.836v-40.115h7.836c4.466 2.921 9.639 9.47 10.477 11.286v-11.286h7.408zM-138.862-9.773v40.115h7.395v-40.115zM-126.857-9.773v40.115h7.552v-22.153c4.746 0 8.793 8.217 9.356 11.007.559 2.786 1.681 6.274 1.681 11.146h6.706c0-7.523-.14-12.535-2.091-16.722-1.825-4.314-3.924-7.654-6.579-10.444 3.632-3.619 5.309-8.5 5.309-12.954h-7.116c-1.541 5.575-3.226 9.334-7.264 10.308v-10.308h-7.552v.005z"/>
  </g>

  <g id="logo__text">
    <path fill="#0055B8" d="M-66.193-23.429c-6.011 0-10.753 4.873-10.753 10.863v47.637c0 5.994 4.746 10.875 10.753 10.875h426.163c6.003 0 10.897-4.881 10.897-10.875v-47.633c0-5.99-4.894-10.863-10.897-10.863h-426.163v-.004z"/>
    <path fill="#fff" d="M-66.193-22.036c-5.165 0-9.5 4.17-9.5 9.474v47.637c0 5.3 4.335 9.466 9.5 9.466h426.163c5.169 0 9.508-4.166 9.508-9.466v-47.637c0-5.3-4.339-9.474-9.508-9.474h-426.163z"/>
    <path fill="#0055B8" d="M365.427 35.075c0 3.078-2.523 5.436-5.457 5.436h-426.163c-2.938 0-5.448-2.362-5.448-5.436v-47.637c0-3.069 2.51-5.431 5.448-5.431h426.163c2.934 0 5.457 2.362 5.457 5.431v47.637z"/>
    <g fill="#fff">
        <path d="M-36.547 30.469h-7.408v-5.004h-10.465v5.004h-6.854c-.978-1.101-.834-8.492-.428-11.134 1.126-10.024 11.176-26.322 17.742-28.968h7.408v40.102h.005zm-7.409-11.133v-18.8c-2.794 1.249-9.364 12.958-10.465 18.8h10.465zM-33.33 30.469v-40.106h14.249c4.483 0 6.998 4.462 7.269 5.571.423 1.253 1.257 7.099-.694 10.308 4.331 4.318 4.885 8.081 4.885 13.094 0 4.881-2.515 9.047-6.566 11.134-3.065-.001-19.143-.001-19.143-.001zm7.688-32.308v4.314h4.183c2.244 0 2.654-1.249 2.654-2.079 0-.838-.135-2.235-2.654-2.235h-4.183zm0 24.794h6.295c2.231 0 4.047-1.816 4.047-3.619 0-1.952.144-4.589-1.681-6.68-1.532-1.943-3.213-2.65-5.165-2.65h-3.492v12.95h-.004zM-9.302-9.637v7.798h8.945v32.308h7.273v-32.308h9.085v-7.798zM41.566 10.42c0 11.142-5.872 20.049-13.14 20.049-7.125 0-12.992-8.907-12.992-20.049 0-11.007 5.872-20.057 12.992-20.057 7.272 0 13.14 9.055 13.14 20.057zm-7.544.14c0-6.824-2.519-12.399-5.596-12.399-2.934 0-5.444 5.575-5.444 12.399 0 6.82 2.51 12.391 5.444 12.391 3.077.004 5.596-5.571 5.596-12.391zM43.466-9.637v19.638c0 6.401 4.61 20.464 13.136 20.464h20.811v-40.102h-7.95v32.588h-5.173v-32.588h-7.688v32.588c-5.588-5.702-5.867-11.413-5.867-15.176v-17.412h-7.269zM80.681-9.637v40.106h7.696v-22.14c4.597 0 8.657 8.221 9.212 11.007.694 2.794 1.676 6.274 1.676 11.134h6.706c0-7.514-.14-12.391-1.952-16.7-1.96-4.326-4.043-7.667-6.706-10.448 3.628-3.624 5.309-8.492 5.309-12.954h-7.129c-1.528 5.571-3.226 9.33-7.12 10.304v-10.304h-7.692v-.005zM132.383 10.42c0 11.142-5.872 20.049-12.988 20.049-7.269 0-13.14-8.907-13.14-20.049 0-11.007 5.872-20.057 13.14-20.057 7.116 0 12.988 9.055 12.988 20.057zm-7.544.14c0-6.824-2.523-12.399-5.448-12.399-3.078 0-5.588 5.575-5.588 12.399 0 6.82 2.515 12.391 5.588 12.391 2.929.004 5.448-5.571 5.448-12.391zM150.827 30.469h7.696v-40.106h-7.696c-7.823 5.436-13.682 14.482-15.231 19.638-1.537 5.16-3.789 12.814-2.1 20.464h7.137c-.563-6.253-.14-11.972 1.676-16.286 1.943-4.178 4.466-9.889 8.517-13.928.001 2.782.001 30.218.001 30.218zM186.463 30.469h-7.269v-5.004h-10.477v5.004h-6.854c-1.118-1.101-.834-8.492-.555-11.134 1.109-10.024 11.303-26.323 17.886-28.969h7.269v40.103zm-7.268-11.133v-18.8c-2.934 1.249-9.5 12.958-10.477 18.8h10.477zM210.356 12.19l4.864 11.023h-6.549l-4.868-10.977 4.868-11.125h6.549zM200.891 12.19l4.872 11.023h-6.557l-4.881-10.977 4.881-11.125h6.557zM243.884 30.469h-7.26v-5.004h-10.494v5.004h-6.837c-1.118-1.101-.834-8.492-.423-11.134 1.118-10.024 11.197-26.323 17.75-28.969h7.26v40.102h.004zm-7.256-11.133v-18.8c-2.934 1.249-9.351 12.958-10.494 18.8h10.494zM247.664-9.637v40.106h7.955v-21.302h10.49v21.302h7.683v-40.106h-7.683v12.116h-10.49v-12.116zM277.141-9.637v40.106h7.417v-6.401c0-3.899 1.389-7.243 2.654-10.304 1.118-3.061 3.772-9.055 7.954-12.539v29.244h7.679v-40.106h-7.679c-4.606 2.921-9.783 9.466-10.609 11.282v-11.282h-7.416zM306.482-9.637v40.106h7.688v-22.14c4.614 0 8.657 8.221 9.229 11.007.555 2.794 1.655 6.274 1.655 11.134h6.723c0-7.514-.14-12.391-1.952-16.7-1.977-4.326-4.051-7.667-6.723-10.448 3.636-3.624 5.334-8.492 5.334-12.954h-7.15c-1.528 5.571-3.192 9.33-7.112 10.304v-10.304h-7.692v-.005zM339.582 12.19l-4.872 11.023h6.566l4.881-10.977-4.881-11.125h-6.566zM349.056 12.19l-4.868 11.023h6.558l4.876-10.977-4.876-11.125h-6.558z"/>
    </g>
  </g>

</svg>
