<?xml version="1.0" encoding="utf-8"?>
<!-- Generator: Adobe Illustrator 17.0.0, SVG Export Plug-In . SVG Version: 6.00 Build 0)  -->
<!DOCTYPE svg PUBLIC "-//W3C//DTD SVG 1.1//EN" "http://www.w3.org/Graphics/SVG/1.1/DTD/svg11.dtd">
<svg version="1.1" id="Layer_1" xmlns="http://www.w3.org/2000/svg" xmlns:xlink="http://www.w3.org/1999/xlink" x="0px" y="0px"
	 width="141.733px" height="31.987px" viewBox="0 0 141.733 31.987" enable-background="new 0 0 141.733 31.987"
	 xml:space="preserve">
<path fill-rule="evenodd" clip-rule="evenodd" fill="#BBD2DC" d="M22.577,31.001H12.246c-0.696,0-1.685-0.398-2.18-0.891
	l-7.295-7.305c-0.494-0.494-0.92-1.448-0.92-2.173V10.334c0-0.692,0.426-1.679,0.92-2.172l7.295-7.273
	C10.483,0.472,11.255,0.105,11.902,0h-1.244C9.969,0,8.978,0.394,8.482,0.889L0.891,8.457C0.395,8.951,0,9.939,0,10.629v10.697
	c0,0.687,0.395,1.677,0.891,2.172l7.592,7.566c0.495,0.495,1.487,0.923,2.176,0.923h10.73c0.726,0,1.683-0.428,2.179-0.923
	l0.452-0.45C23.55,30.848,23.006,31.001,22.577,31.001z"/>
<path fill-rule="evenodd" clip-rule="evenodd" fill="#D13239" d="M13.268,29.683c-0.692,0-1.683-0.395-2.178-0.89l-6.8-6.78
	c-0.495-0.493-0.889-1.477-0.889-2.17v-9.574c0-0.694,0.394-1.679,0.889-2.174l6.8-6.778c0.495-0.495,1.486-0.89,2.178-0.89h9.605
	c0.694,0,1.683,0.395,2.178,0.89l6.8,6.778c0.496,0.495,0.892,1.481,0.892,2.174v9.574c0,0.692-0.396,1.677-0.892,2.17l-6.8,6.78
	c-0.495,0.495-1.484,0.89-2.178,0.89H13.268L13.268,29.683z"/>
<path fill-rule="evenodd" clip-rule="evenodd" fill="#FFFFFF" d="M13.862,28.465c-0.53,0-1.252-0.297-1.651-0.691l-6.696-6.679
	c-0.364-0.363-0.661-1.086-0.661-1.614v-9.478c0-0.526,0.297-1.25,0.661-1.611l6.696-6.682c0.399-0.395,1.121-0.692,1.651-0.692
	h9.474c0.527,0,1.253,0.297,1.649,0.692l6.702,6.682c0.361,0.361,0.693,1.085,0.693,1.611v9.478c0,0.528-0.332,1.251-0.693,1.614
	l-6.702,6.679c-0.396,0.394-1.123,0.691-1.649,0.691H13.862L13.862,28.465z"/>
<path fill-rule="evenodd" clip-rule="evenodd" fill="#D13239" d="M14.161,26.952c-0.363,0-0.829-0.198-1.09-0.428L6.798,20.27
	c-0.264-0.26-0.463-0.755-0.463-1.116v-8.819c0-0.364,0.2-0.856,0.463-1.12l6.272-6.253c0.262-0.23,0.727-0.428,1.09-0.428h8.879
	c0.36,0,0.858,0.199,1.088,0.428l6.271,6.253c0.265,0.264,0.462,0.756,0.462,1.12v8.819c0,0.361-0.197,0.857-0.462,1.116
	l-6.271,6.255c-0.23,0.229-0.728,0.428-1.088,0.428H14.161L14.161,26.952z"/>
<g>
	<path fill-rule="evenodd" clip-rule="evenodd" fill="#FFFFFF" d="M13.236,19.383h-1.75v-1.216H9.01v1.216H7.394
		c-0.233-0.263-0.2-2.007-0.101-2.633c0.265-2.369,2.642-6.219,4.193-6.843h1.75V19.383L13.236,19.383z M11.487,16.749
		c0,0,0-3.685,0-4.44c-0.66,0.294-2.212,3.06-2.477,4.44H11.487L11.487,16.749z"/>
	<path fill-rule="evenodd" clip-rule="evenodd" fill="#FFFFFF" d="M20.267,9.907v9.476h-1.75v-1.515
		c0-0.919-0.331-1.711-0.626-2.435c-0.265-0.723-0.892-2.139-1.849-2.961c0,0.658,0,6.911,0,6.911h-1.851V9.907h1.851
		c1.055,0.69,2.277,2.237,2.475,2.666c0-0.627,0-2.666,0-2.666H20.267L20.267,9.907z"/>
	<polygon fill-rule="evenodd" clip-rule="evenodd" fill="#FFFFFF" points="21.324,9.907 21.324,19.383 23.071,19.383 23.071,9.907 
		21.324,9.907 	"/>
	<g>
		<path fill-rule="evenodd" clip-rule="evenodd" fill="#FFFFFF" d="M24.16,9.907v9.476h1.784v-5.233c1.121,0,2.077,1.941,2.21,2.6
			c0.132,0.658,0.397,1.482,0.397,2.633c0.528,0,1.584,0,1.584,0c0-1.777-0.033-2.961-0.494-3.95
			c-0.431-1.019-0.927-1.808-1.554-2.467c0.858-0.855,1.254-2.008,1.254-3.06c-0.693,0-1.681,0-1.681,0
			c-0.364,1.317-0.762,2.205-1.716,2.435c0-0.528,0-2.435,0-2.435H24.16L24.16,9.907z"/>
	</g>
</g>
<path fill-rule="evenodd" clip-rule="evenodd" fill="#0055B8" d="M38.49,6.681c-1.42,0-2.54,1.151-2.54,2.566v11.253
	c0,1.416,1.121,2.569,2.54,2.569h100.669c1.418,0,2.574-1.153,2.574-2.569V9.248c0-1.415-1.156-2.566-2.574-2.566H38.49L38.49,6.681
	z"/>
<path fill-rule="evenodd" clip-rule="evenodd" fill="#FFFFFF" d="M38.49,7.01c-1.22,0-2.244,0.985-2.244,2.238v11.253
	c0,1.252,1.024,2.236,2.244,2.236h100.669c1.221,0,2.246-0.984,2.246-2.236V9.248c0-1.252-1.025-2.238-2.246-2.238H38.49L38.49,7.01
	z"/>
<path fill-rule="evenodd" clip-rule="evenodd" fill="#0055B8" d="M140.448,20.501c0,0.727-0.596,1.284-1.289,1.284H38.49
	c-0.694,0-1.287-0.558-1.287-1.284V9.248c0-0.725,0.593-1.283,1.287-1.283h100.669c0.693,0,1.289,0.558,1.289,1.283V20.501
	L140.448,20.501z"/>
<g>
	<path fill-rule="evenodd" clip-rule="evenodd" fill="#FFFFFF" d="M45.493,19.413h-1.75v-1.182h-2.472v1.182h-1.619
		c-0.231-0.26-0.197-2.006-0.101-2.63c0.266-2.368,2.64-6.218,4.191-6.843h1.75V19.413L45.493,19.413z M43.743,16.783
		c0,0,0-3.653,0-4.441c-0.66,0.295-2.212,3.061-2.472,4.441H43.743L43.743,16.783z"/>
	<path fill-rule="evenodd" clip-rule="evenodd" fill="#FFFFFF" d="M46.253,19.413V9.939h3.366c1.059,0,1.653,1.054,1.717,1.316
		c0.1,0.296,0.297,1.677-0.164,2.435c1.023,1.02,1.154,1.909,1.154,3.093c0,1.153-0.594,2.137-1.551,2.63
		C50.051,19.413,46.253,19.413,46.253,19.413L46.253,19.413z M48.069,11.781v1.019h0.988c0.53,0,0.627-0.295,0.627-0.491
		c0-0.198-0.032-0.528-0.627-0.528C48.496,11.781,48.069,11.781,48.069,11.781L48.069,11.781z M48.069,17.638h1.487
		c0.527,0,0.956-0.429,0.956-0.855c0-0.461,0.034-1.084-0.397-1.578c-0.362-0.459-0.759-0.626-1.22-0.626c-0.462,0-0.825,0-0.825,0
		V17.638L48.069,17.638z"/>
	<polygon fill-rule="evenodd" clip-rule="evenodd" fill="#FFFFFF" points="51.929,9.939 51.929,11.781 54.042,11.781 54.042,19.413 
		55.76,19.413 55.76,11.781 57.906,11.781 57.906,9.939 51.929,9.939 	"/>
	<path fill-rule="evenodd" clip-rule="evenodd" fill="#FFFFFF" d="M63.945,14.677c0,2.632-1.387,4.736-3.104,4.736
		c-1.683,0-3.069-2.104-3.069-4.736c0-2.6,1.387-4.738,3.069-4.738C62.559,9.939,63.945,12.078,63.945,14.677L63.945,14.677z
		 M62.163,14.71c0-1.612-0.595-2.929-1.322-2.929c-0.693,0-1.286,1.317-1.286,2.929c0,1.611,0.593,2.927,1.286,2.927
		C61.568,17.638,62.163,16.321,62.163,14.71L62.163,14.71z"/>
	<path fill-rule="evenodd" clip-rule="evenodd" fill="#FFFFFF" d="M64.394,9.939c0,0,0,3.125,0,4.639
		c0,1.512,1.089,4.834,3.103,4.834c2.012,0,4.916,0,4.916,0V9.939h-1.878v7.698h-1.222V9.939h-1.816v7.698
		c-1.32-1.347-1.386-2.696-1.386-3.585c0-0.889,0-4.113,0-4.113H64.394L64.394,9.939z"/>
	<path fill-rule="evenodd" clip-rule="evenodd" fill="#FFFFFF" d="M73.185,9.939v9.474h1.818v-5.23c1.086,0,2.045,1.942,2.176,2.6
		c0.164,0.66,0.396,1.482,0.396,2.63c0.562,0,1.584,0,1.584,0c0-1.775-0.033-2.927-0.461-3.945
		c-0.463-1.022-0.955-1.811-1.584-2.468c0.857-0.856,1.254-2.006,1.254-3.06c-0.693,0-1.684,0-1.684,0
		c-0.361,1.316-0.762,2.204-1.682,2.434c0-0.526,0-2.434,0-2.434H73.185L73.185,9.939z"/>
	<path fill-rule="evenodd" clip-rule="evenodd" fill="#FFFFFF" d="M85.398,14.677c0,2.632-1.387,4.736-3.068,4.736
		c-1.717,0-3.104-2.104-3.104-4.736c0-2.6,1.387-4.738,3.104-4.738C84.011,9.939,85.398,12.078,85.398,14.677L85.398,14.677z
		 M83.616,14.71c0-1.612-0.596-2.929-1.287-2.929c-0.727,0-1.32,1.317-1.32,2.929c0,1.611,0.594,2.927,1.32,2.927
		C83.021,17.638,83.616,16.321,83.616,14.71L83.616,14.71z"/>
	<path fill-rule="evenodd" clip-rule="evenodd" fill="#FFFFFF" d="M89.755,19.413h1.818V9.939h-1.818
		c-1.848,1.284-3.232,3.421-3.598,4.639c-0.363,1.219-0.895,3.027-0.496,4.834c0.363,0,1.686,0,1.686,0
		c-0.133-1.477-0.033-2.828,0.396-3.847c0.459-0.987,1.055-2.336,2.012-3.29C89.755,12.932,89.755,19.413,89.755,19.413
		L89.755,19.413z"/>
	<path fill-rule="evenodd" clip-rule="evenodd" fill="#FFFFFF" d="M98.173,19.413h-1.717v-1.182h-2.475v1.182h-1.619
		c-0.264-0.26-0.197-2.006-0.131-2.63c0.262-2.368,2.67-6.218,4.225-6.843h1.717V19.413L98.173,19.413z M96.456,16.783
		c0,0,0-3.653,0-4.441c-0.693,0.295-2.244,3.061-2.475,4.441H96.456L96.456,16.783z"/>
	<polygon fill-rule="evenodd" clip-rule="evenodd" fill="#FFFFFF" points="103.817,15.095 104.966,17.699 103.419,17.699 
		102.269,15.106 103.419,12.478 104.966,12.478 	"/>
	<polygon fill-rule="evenodd" clip-rule="evenodd" fill="#FFFFFF" points="101.581,15.095 102.732,17.699 101.183,17.699 
		100.03,15.106 101.183,12.478 102.732,12.478 	"/>
	<path fill-rule="evenodd" clip-rule="evenodd" fill="#FFFFFF" d="M111.737,19.413h-1.715v-1.182h-2.479v1.182h-1.615
		c-0.264-0.26-0.197-2.006-0.1-2.63c0.264-2.368,2.645-6.218,4.193-6.843h1.715V19.413L111.737,19.413z M110.023,16.783
		c0,0,0-3.653,0-4.441c-0.693,0.295-2.209,3.061-2.479,4.441H110.023L110.023,16.783z"/>
	<polygon fill-rule="evenodd" clip-rule="evenodd" fill="#FFFFFF" points="112.63,9.939 112.63,19.413 114.509,19.413 
		114.509,14.381 116.987,14.381 116.987,19.413 118.802,19.413 118.802,9.939 116.987,9.939 116.987,12.801 114.509,12.801 
		114.509,9.939 112.63,9.939 	"/>
	<path fill-rule="evenodd" clip-rule="evenodd" fill="#FFFFFF" d="M119.593,9.939v9.474h1.752v-1.512
		c0-0.921,0.328-1.711,0.627-2.434c0.264-0.723,0.891-2.139,1.879-2.962c0,0.658,0,6.908,0,6.908h1.814V9.939h-1.814
		c-1.088,0.69-2.311,2.236-2.506,2.665c0-0.625,0-2.665,0-2.665H119.593L119.593,9.939z"/>
	<path fill-rule="evenodd" clip-rule="evenodd" fill="#FFFFFF" d="M126.524,9.939v9.474h1.816v-5.23c1.09,0,2.045,1.942,2.18,2.6
		c0.131,0.66,0.391,1.482,0.391,2.63c0.531,0,1.588,0,1.588,0c0-1.775-0.033-2.927-0.461-3.945
		c-0.467-1.022-0.957-1.811-1.588-2.468c0.859-0.856,1.26-2.006,1.26-3.06c-0.697,0-1.689,0-1.689,0
		c-0.361,1.316-0.754,2.204-1.68,2.434c0-0.526,0-2.434,0-2.434H126.524L126.524,9.939z"/>
	<polygon fill-rule="evenodd" clip-rule="evenodd" fill="#FFFFFF" points="134.343,15.095 133.192,17.699 134.743,17.699 
		135.896,15.106 134.743,12.478 133.192,12.478 	"/>
	<polygon fill-rule="evenodd" clip-rule="evenodd" fill="#FFFFFF" points="136.581,15.095 135.431,17.699 136.98,17.699 
		138.132,15.106 136.98,12.478 135.431,12.478 	"/>
</g>
</svg>
